<svg width="17" height="17" viewBox="0 0 17 17" fill="none" xmlns="http://www.w3.org/2000/svg">
<path d="M7.7093 2.5814H4.57829C3.32577 2.5814 2.69951 2.5814 2.22111 2.82516C1.8003 3.03957 1.45817 3.3817 1.24376 3.80251C1 4.28091 1 4.90717 1 6.15969V12.4217C1 13.6742 1 14.3005 1.24376 14.7789C1.45817 15.1997 1.8003 15.5418 2.22111 15.7562C2.69951 16 3.32577 16 4.57829 16H10.8403C12.0928 16 12.7191 16 13.1975 15.7562C13.6183 15.5418 13.9604 15.1997 14.1748 14.7789C14.4186 14.3005 14.4186 13.6742 14.4186 12.4217V9.2907M5.47285 11.5271H6.72118C7.08586 11.5271 7.26819 11.5271 7.43978 11.4859C7.59192 11.4494 7.73735 11.3892 7.87075 11.3074C8.02121 11.2152 8.15014 11.0863 8.40801 10.8284L15.5368 3.69962C16.1544 3.08204 16.1544 2.08076 15.5368 1.46318C14.9192 0.845607 13.918 0.845606 13.3004 1.46318L6.17156 8.59199C5.91369 8.84986 5.78476 8.97879 5.69256 9.12925C5.61081 9.26265 5.55057 9.40809 5.51404 9.56022C5.47285 9.73181 5.47285 9.91415 5.47285 10.2788V11.5271Z" stroke="white" stroke-width="1.5" stroke-linecap="round" stroke-linejoin="round"/>
</svg>
