<svg width="17" height="15" viewBox="0 0 17 15" fill="none" xmlns="http://www.w3.org/2000/svg">
<path d="M15.625 12.5L10.6429 8M6.35714 8L1.37503 12.5M1 4.25L7.12369 8.53658C7.61957 8.8837 7.86751 9.05726 8.1372 9.12448C8.37542 9.18386 8.62458 9.18386 8.8628 9.12448C9.13249 9.05726 9.38043 8.8837 9.87631 8.53658L16 4.25M4.6 14H12.4C13.6601 14 14.2902 14 14.7715 13.7548C15.1948 13.539 15.539 13.1948 15.7548 12.7715C16 12.2902 16 11.6601 16 10.4V5.6C16 4.33988 16 3.70982 15.7548 3.22852C15.539 2.80516 15.1948 2.46095 14.7715 2.24524C14.2902 2 13.6601 2 12.4 2H4.6C3.33988 2 2.70982 2 2.22852 2.24524C1.80516 2.46095 1.46095 2.80516 1.24524 3.22852C1 3.70982 1 4.33988 1 5.6V10.4C1 11.6601 1 12.2902 1.24524 12.7715C1.46095 13.1948 1.80516 13.539 2.22852 13.7548C2.70982 14 3.33988 14 4.6 14Z" stroke="white" stroke-width="1.5" stroke-linecap="round" stroke-linejoin="round"/>
</svg>
