<svg width="17" height="17" viewBox="0 0 17 17" fill="none" xmlns="http://www.w3.org/2000/svg">
<path d="M6.25 16V10.08C6.25 9.63196 6.25 9.40794 6.33175 9.23681C6.40365 9.08628 6.51839 8.96389 6.65951 8.88719C6.81994 8.8 7.02996 8.8 7.45 8.8H9.55C9.97004 8.8 10.1801 8.8 10.3405 8.88719C10.4816 8.96389 10.5964 9.08628 10.6683 9.23681C10.75 9.40794 10.75 9.63196 10.75 10.08V16M1 6.8L7.78 1.376C8.0382 1.16944 8.16729 1.06617 8.30908 1.02636C8.43423 0.991215 8.56578 0.991215 8.69093 1.02636C8.83271 1.06617 8.96181 1.16944 9.22 1.376L16 6.8M2.5 5.6V13.44C2.5 14.3361 2.5 14.7841 2.66349 15.1264C2.8073 15.4274 3.03677 15.6722 3.31902 15.8256C3.63988 16 4.05992 16 4.9 16H12.1C12.9401 16 13.3601 16 13.681 15.8256C13.9632 15.6722 14.1927 15.4274 14.3365 15.1264C14.5 14.7841 14.5 14.3361 14.5 13.44V5.6L9.94 1.952C9.42362 1.53889 9.16542 1.33233 8.88185 1.25271C8.63155 1.18243 8.36846 1.18243 8.11815 1.25271C7.83459 1.33233 7.57639 1.53889 7.06 1.952L2.5 5.6Z" stroke="white" stroke-width="1.5" stroke-linecap="round" stroke-linejoin="round"/>
</svg>
