<svg width="17" height="17" viewBox="0 0 17 17" fill="none" xmlns="http://www.w3.org/2000/svg">
<path d="M9.6401 11.2358C9.55551 11.342 9.46674 11.447 9.37391 11.5501C8.03149 13.0417 6.34964 13.5913 5.61741 12.7777C5.11541 12.22 5.19006 11.1663 5.71921 10.0781M6.44459 8.93267C6.53262 8.82145 6.62523 8.71166 6.72226 8.60384C8.06469 7.11225 9.74654 6.56263 10.4788 7.37622C10.9811 7.93439 10.906 8.98916 10.3759 10.0781M9.37391 8.60384C10.7163 10.0954 11.211 11.9641 10.4788 12.7777C9.74654 13.5913 8.06469 13.0417 6.72226 11.5501C5.37984 10.0585 4.88518 8.18982 5.61741 7.37622C6.34964 6.56263 8.03149 7.11225 9.37391 8.60384ZM8.35408 10.0697C8.35408 10.2615 8.21417 10.4169 8.04158 10.4169C7.869 10.4169 7.72908 10.2615 7.72908 10.0697C7.72908 9.87796 7.869 9.7225 8.04158 9.7225C8.21417 9.7225 8.35408 9.87796 8.35408 10.0697Z" stroke="white" stroke-linecap="round" stroke-linejoin="round"/>
<path d="M9.25 4.33333L8.41334 2.4741C8.17255 1.939 8.05215 1.67144 7.87253 1.47597C7.71368 1.30311 7.52224 1.17164 7.31206 1.09109C7.07437 1 6.80516 1 6.26672 1H3.4C2.55992 1 2.13988 1 1.81901 1.18166C1.53677 1.34144 1.3073 1.59641 1.16349 1.91002C1 2.26654 1 2.73325 1 3.66667V4.33333M1 4.33333H12.4C13.6601 4.33333 14.2902 4.33333 14.7715 4.60582C15.1948 4.8455 15.539 5.22795 15.7548 5.69836C16 6.23314 16 6.9332 16 8.33333V12C16 13.4001 16 14.1002 15.7548 14.635C15.539 15.1054 15.1948 15.4878 14.7715 15.7275C14.2902 16 13.6601 16 12.4 16H4.6C3.33988 16 2.70982 16 2.22852 15.7275C1.80516 15.4878 1.46095 15.1054 1.24524 14.635C1 14.1002 1 13.4001 1 12V4.33333Z" stroke="white" stroke-width="1.5" stroke-linecap="round" stroke-linejoin="round"/>
</svg>
