<svg width="17" height="17" viewBox="0 0 17 17" fill="none" xmlns="http://www.w3.org/2000/svg">
<path d="M14.3333 6.25C14.3333 9.1495 11.7217 11.5 8.5 11.5M14.3333 6.25C14.3333 3.3505 11.7217 1 8.5 1M14.3333 6.25H2.66667M8.5 11.5C5.27834 11.5 2.66667 9.1495 2.66667 6.25M8.5 11.5C9.95908 10.0624 10.789 8.19668 10.8341 6.25C10.789 4.30332 9.95908 2.43764 8.5 1M8.5 11.5C7.04092 10.0624 6.21249 8.19668 6.16743 6.25C6.21249 4.30332 7.04092 2.43764 8.5 1M8.5 11.5V13M2.66667 6.25C2.66667 3.3505 5.27834 1 8.5 1M10.1667 14.5C10.1667 15.3284 9.42047 16 8.5 16C7.57953 16 6.83333 15.3284 6.83333 14.5M10.1667 14.5C10.1667 13.6716 9.42047 13 8.5 13M10.1667 14.5H16M6.83333 14.5C6.83333 13.6716 7.57953 13 8.5 13M6.83333 14.5H1" stroke="white" stroke-width="1.5" stroke-linecap="round" stroke-linejoin="round"/>
</svg>
