<svg width="184" height="196" viewBox="0 0 184 196" fill="none" xmlns="http://www.w3.org/2000/svg">
<path d="M45.0353 26.7636L50 26.5034L54.9647 26.7636L59.8751 27.5413L64.6773 28.8281L69.3186 30.6097L73.7483 32.8668L77.9178 35.5745L81.7814 38.7032L85.2968 42.2186L88.4255 46.0822L91.1332 50.2517L93.3903 54.6814L95.1719 59.3228L96.4587 64.1249L97.2364 69.0353L97.4966 74L97.2364 78.9647L96.4587 83.8751L95.1719 88.6773L93.3903 93.3186L91.1332 97.7483L88.4255 101.918L85.2968 105.781L81.7814 109.297L77.9178 112.426L73.7483 115.133L69.3186 117.39L64.6773 119.172L59.8751 120.459L54.9647 121.236L50 121.497L45.0353 121.236L40.1249 120.459L35.3228 119.172L30.6814 117.39L26.2517 115.133L22.0822 112.426L18.2186 109.297L14.7032 105.781L11.5745 101.918L8.86677 97.7483L6.60972 93.3186L4.82808 88.6773L3.54135 83.8751L2.76362 78.9647L2.50343 74L2.76362 69.0353L3.54135 64.1249L4.82808 59.3228L6.60972 54.6814L8.86677 50.2517L11.5745 46.0822L14.7032 42.2186L18.2186 38.7032L22.0822 35.5745L26.2517 32.8668L30.6814 30.6097L35.3228 28.8281L40.1249 27.5413L45.0353 26.7636Z" stroke="white" stroke-width="5"/>
<path d="M45.0353 74.7636L50 74.5034L54.9647 74.7636L59.8751 75.5413L64.6773 76.8281L69.3186 78.6097L73.7483 80.8668L77.9178 83.5745L81.7814 86.7032L85.2968 90.2186L88.4255 94.0822L91.1332 98.2517L93.3903 102.681L95.1719 107.323L96.4587 112.125L97.2364 117.035L97.4966 122L97.2364 126.965L96.4587 131.875L95.1719 136.677L93.3903 141.319L91.1332 145.748L88.4255 149.918L85.2968 153.781L81.7814 157.297L77.9178 160.426L73.7483 163.133L69.3186 165.39L64.6773 167.172L59.8751 168.459L54.9647 169.236L50 169.497L45.0353 169.236L40.1249 168.459L35.3228 167.172L30.6814 165.39L26.2517 163.133L22.0822 160.426L18.2186 157.297L14.7032 153.781L11.5745 149.918L8.86677 145.748L6.60972 141.319L4.82808 136.677L3.54135 131.875L2.76362 126.965L2.50343 122L2.76362 117.035L3.54135 112.125L4.82808 107.323L6.60972 102.681L8.86677 98.2517L11.5745 94.0822L14.7032 90.2186L18.2186 86.7032L22.0822 83.5745L26.2517 80.8668L30.6814 78.6097L35.3228 76.8281L40.1249 75.5413L45.0353 74.7636Z" stroke="white" stroke-width="5"/>
<path d="M87.0353 2.76362L92 2.50343L96.9647 2.76362L101.875 3.54135L106.677 4.82808L111.319 6.60972L115.748 8.86677L119.918 11.5745L123.781 14.7032L127.297 18.2186L130.426 22.0822L133.133 26.2517L135.39 30.6814L137.172 35.3228L138.459 40.1249L139.236 45.0353L139.497 50L139.236 54.9647L138.459 59.8751L137.172 64.6773L135.39 69.3186L133.133 73.7483L130.426 77.9178L127.297 81.7814L123.781 85.2968L119.918 88.4255L115.748 91.1332L111.319 93.3903L106.677 95.1719L101.875 96.4587L96.9647 97.2364L92 97.4966L87.0353 97.2364L82.1249 96.4587L77.3228 95.1719L72.6814 93.3903L68.2517 91.1332L64.0822 88.4255L60.2186 85.2968L56.7032 81.7814L53.5745 77.9178L50.8668 73.7483L48.6097 69.3186L46.8281 64.6773L45.5413 59.8751L44.7636 54.9647L44.5034 50L44.7636 45.0353L45.5413 40.1249L46.8281 35.3228L48.6097 30.6814L50.8668 26.2517L53.5745 22.0822L56.7032 18.2186L60.2186 14.7032L64.0822 11.5745L68.2517 8.86677L72.6814 6.60972L77.3228 4.82808L82.1249 3.54135L87.0353 2.76362Z" stroke="white" stroke-width="5"/>
<path d="M87.0353 50.7636L92 50.5034L96.9647 50.7636L101.875 51.5413L106.677 52.8281L111.319 54.6097L115.748 56.8668L119.918 59.5745L123.781 62.7032L127.297 66.2186L130.426 70.0822L133.133 74.2517L135.39 78.6814L137.172 83.3228L138.459 88.1249L139.236 93.0353L139.497 98L139.236 102.965L138.459 107.875L137.172 112.677L135.39 117.319L133.133 121.748L130.426 125.918L127.297 129.781L123.781 133.297L119.918 136.426L115.748 139.133L111.319 141.39L106.677 143.172L101.875 144.459L96.9647 145.236L92 145.497L87.0353 145.236L82.1249 144.459L77.3228 143.172L72.6814 141.39L68.2517 139.133L64.0822 136.426L60.2186 133.297L56.7032 129.781L53.5745 125.918L50.8668 121.748L48.6097 117.319L46.8281 112.677L45.5413 107.875L44.7636 102.965L44.5034 98L44.7636 93.0353L45.5413 88.1249L46.8281 83.3228L48.6097 78.6814L50.8668 74.2517L53.5745 70.0822L56.7032 66.2186L60.2186 62.7032L64.0822 59.5745L68.2517 56.8668L72.6814 54.6097L77.3228 52.8281L82.1249 51.5413L87.0353 50.7636Z" stroke="white" stroke-width="5"/>
<path d="M87.0353 98.7636L92 98.5034L96.9647 98.7636L101.875 99.5413L106.677 100.828L111.319 102.61L115.748 104.867L119.918 107.574L123.781 110.703L127.297 114.219L130.426 118.082L133.133 122.252L135.39 126.681L137.172 131.323L138.459 136.125L139.236 141.035L139.497 146L139.236 150.965L138.459 155.875L137.172 160.677L135.39 165.319L133.133 169.748L130.426 173.918L127.297 177.781L123.781 181.297L119.918 184.426L115.748 187.133L111.319 189.39L106.677 191.172L101.875 192.459L96.9647 193.236L92 193.497L87.0353 193.236L82.1249 192.459L77.3228 191.172L72.6814 189.39L68.2517 187.133L64.0822 184.426L60.2186 181.297L56.7032 177.781L53.5745 173.918L50.8668 169.748L48.6097 165.319L46.8281 160.677L45.5413 155.875L44.7636 150.965L44.5034 146L44.7636 141.035L45.5413 136.125L46.8281 131.323L48.6097 126.681L50.8668 122.252L53.5745 118.082L56.7032 114.219L60.2186 110.703L64.0822 107.574L68.2517 104.867L72.6814 102.61L77.3228 100.828L82.1249 99.5413L87.0353 98.7636Z" stroke="white" stroke-width="5"/>
<path d="M129.035 26.7636L134 26.5034L138.965 26.7636L143.875 27.5413L148.677 28.8281L153.319 30.6097L157.748 32.8668L161.918 35.5745L165.781 38.7032L169.297 42.2186L172.426 46.0822L175.133 50.2517L177.39 54.6814L179.172 59.3228L180.459 64.1249L181.236 69.0353L181.497 74L181.236 78.9647L180.459 83.8751L179.172 88.6773L177.39 93.3186L175.133 97.7483L172.426 101.918L169.297 105.781L165.781 109.297L161.918 112.426L157.748 115.133L153.319 117.39L148.677 119.172L143.875 120.459L138.965 121.236L134 121.497L129.035 121.236L124.125 120.459L119.323 119.172L114.681 117.39L110.252 115.133L106.082 112.426L102.219 109.297L98.7032 105.781L95.5745 101.918L92.8668 97.7483L90.6097 93.3186L88.8281 88.6773L87.5413 83.8751L86.7636 78.9647L86.5034 74L86.7636 69.0353L87.5413 64.1249L88.8281 59.3228L90.6097 54.6814L92.8668 50.2517L95.5745 46.0822L98.7032 42.2186L102.219 38.7032L106.082 35.5745L110.252 32.8668L114.681 30.6097L119.323 28.8281L124.125 27.5413L129.035 26.7636Z" stroke="white" stroke-width="5"/>
<path d="M129.035 74.7636L134 74.5034L138.965 74.7636L143.875 75.5413L148.677 76.8281L153.319 78.6097L157.748 80.8668L161.918 83.5745L165.781 86.7032L169.297 90.2186L172.426 94.0822L175.133 98.2517L177.39 102.681L179.172 107.323L180.459 112.125L181.236 117.035L181.497 122L181.236 126.965L180.459 131.875L179.172 136.677L177.39 141.319L175.133 145.748L172.426 149.918L169.297 153.781L165.781 157.297L161.918 160.426L157.748 163.133L153.319 165.39L148.677 167.172L143.875 168.459L138.965 169.236L134 169.497L129.035 169.236L124.125 168.459L119.323 167.172L114.681 165.39L110.252 163.133L106.082 160.426L102.219 157.297L98.7032 153.781L95.5745 149.918L92.8668 145.748L90.6097 141.319L88.8281 136.677L87.5413 131.875L86.7636 126.965L86.5034 122L86.7636 117.035L87.5413 112.125L88.8281 107.323L90.6097 102.681L92.8668 98.2517L95.5745 94.0822L98.7032 90.2186L102.219 86.7032L106.082 83.5745L110.252 80.8668L114.681 78.6097L119.323 76.8281L124.125 75.5413L129.035 74.7636Z" stroke="white" stroke-width="5"/>
</svg>
