<svg width="3901" height="1599" viewBox="0 0 3901 1599" fill="none" xmlns="http://www.w3.org/2000/svg">
<g clip-path="url(#clip0_47_1489)">
<path d="M-1196 502.887C-1196 502.887 -280.176 440.929 317.547 887.936C915.271 1334.94 1571.77 1840.04 2572.13 901.937C3572.49 -36.1682 4098 283.726 4098 283.726" stroke="#818181" stroke-opacity="0.34" stroke-width="5.7619"/>
<path d="M-1173.64 537.248C-1173.64 537.248 -292.278 419.692 325.27 818.269C942.817 1216.85 1585.4 1802.99 2581.39 904.931C3577.37 6.87597 4056.34 203.524 4056.34 203.524" stroke="#818181" stroke-opacity="0.34" stroke-width="5.52381"/>
<path d="M-1151.28 589.288C-1151.28 589.288 -304.378 416.134 332.993 766.281C970.364 1116.43 1599.04 1783.61 2590.64 925.605C3582.25 67.5993 4014.69 141.002 4014.69 141.002" stroke="#818181" stroke-opacity="0.34" stroke-width="5.28571"/>
<path d="M-1128.92 656.434C-1128.92 656.434 -316.479 427.681 340.716 729.398C997.911 1031.12 1612.67 1779.34 2599.9 961.383C3587.13 143.428 3973.03 93.5854 3973.03 93.5854" stroke="#818181" stroke-opacity="0.34" stroke-width="5.04762"/>
<path d="M-1106.56 725.147C-1106.56 725.147 -328.578 440.796 348.44 694.084C1025.46 947.373 1626.31 1776.64 2609.16 998.731C3592.01 220.824 3931.38 47.7368 3931.38 47.7368" stroke="#818181" stroke-opacity="0.34" stroke-width="4.80952"/>
<path d="M-1084.2 793.861C-1084.2 793.861 -340.68 453.911 356.162 658.769C1053 863.628 1639.94 1773.94 2618.41 1036.08C3596.88 298.221 3889.72 1.8877 3889.72 1.8877" stroke="#818181" stroke-opacity="0.34" stroke-width="4.57143"/>
<path d="M-1061.83 862.573C-1061.83 862.573 -352.779 467.025 363.887 623.453C1080.55 779.883 1653.57 1771.23 2627.67 1073.42C3601.77 375.616 3848.07 -43.9619 3848.07 -43.9619" stroke="#818181" stroke-opacity="0.34" stroke-width="4.33333"/>
<path d="M-1039.47 931.287C-1039.47 931.287 -364.882 480.14 371.608 588.139C1108.1 696.138 1667.21 1768.53 2636.92 1110.77C3606.64 453.013 3806.41 -89.8105 3806.41 -89.8105" stroke="#818181" stroke-opacity="0.34" stroke-width="4.09524"/>
<path d="M-1017.11 1000C-1017.11 1000 -376.981 493.254 379.332 552.823C1135.65 612.393 1680.84 1765.83 2646.18 1148.12C3611.52 530.409 3764.76 -135.66 3764.76 -135.66" stroke="#818181" stroke-opacity="0.34" stroke-width="3.85714"/>
<path d="M-994.752 1068.71C-994.752 1068.71 -389.082 506.369 387.055 517.508C1163.19 528.648 1694.47 1763.13 2655.44 1185.46C3616.4 607.805 3723.1 -181.509 3723.1 -181.509" stroke="#818181" stroke-opacity="0.34" stroke-width="3.61905"/>
<path d="M-972.391 1137.43C-972.391 1137.43 -401.182 519.485 394.779 482.194C1190.74 444.904 1708.11 1760.43 2664.7 1222.81C3621.28 685.202 3681.45 -227.357 3681.45 -227.357" stroke="#818181" stroke-opacity="0.34" stroke-width="3.38095"/>
<path d="M-950.03 1206.14C-950.03 1206.14 -413.284 532.599 402.501 446.879C1218.29 361.159 1721.74 1757.72 2673.95 1260.16C3626.16 762.598 3639.79 -273.207 3639.79 -273.207" stroke="#818181" stroke-opacity="0.34" stroke-width="3.14286"/>
<path d="M-927.668 1274.85C-927.668 1274.85 -425.383 545.713 410.226 411.563C1245.83 277.413 1735.38 1755.02 2683.21 1297.5C3631.04 839.993 3598.14 -319.057 3598.14 -319.057" stroke="#818181" stroke-opacity="0.34" stroke-width="2.90476"/>
<path d="M-905.309 1343.57C-905.309 1343.57 -437.485 558.829 417.947 376.249C1273.38 193.669 1749.01 1752.32 2692.46 1334.85C3635.92 917.391 3556.48 -364.905 3556.48 -364.905" stroke="#818181" stroke-opacity="0.34" stroke-width="2.66667"/>
<path d="M-882.947 1412.28C-882.947 1412.28 -449.585 571.943 425.671 340.933C1300.93 109.924 1762.64 1749.62 2701.72 1372.2C3640.8 994.786 3514.83 -410.755 3514.83 -410.755" stroke="#818181" stroke-opacity="0.34" stroke-width="2.42857"/>
<path d="M-860.586 1480.99C-860.586 1480.99 -461.685 585.057 433.394 305.618C1328.47 26.1789 1776.28 1746.91 2710.98 1409.54C3645.68 1072.18 3473.17 -456.604 3473.17 -456.604" stroke="#818181" stroke-opacity="0.34" stroke-width="2.19048"/>
<path d="M-838.226 1549.71C-838.226 1549.71 -473.787 598.173 441.117 270.304C1356.02 -57.565 1789.91 1744.21 2720.23 1446.89C3650.56 1149.58 3431.52 -502.453 3431.52 -502.453" stroke="#818181" stroke-opacity="0.34" stroke-width="1.95238"/>
<path d="M-815.864 1618.42C-815.864 1618.42 -485.887 611.287 448.841 234.988C1383.57 -141.31 1803.55 1741.51 2729.49 1484.24C3655.44 1226.98 3389.87 -548.302 3389.87 -548.302" stroke="#818181" stroke-opacity="0.34" stroke-width="1.71429"/>
<path d="M-793.503 1687.13C-793.503 1687.13 -497.987 624.402 456.564 199.674C1411.12 -225.055 1817.18 1738.81 2738.75 1521.58C3660.32 1304.37 3348.21 -594.151 3348.21 -594.151" stroke="#818181" stroke-opacity="0.34" stroke-width="1.47619"/>
<path d="M-771.143 1755.85C-771.143 1755.85 -510.088 637.517 464.287 164.359C1438.66 -308.799 1830.81 1736.1 2748 1558.93C3665.19 1381.77 3306.55 -640 3306.55 -640" stroke="#818181" stroke-opacity="0.34" stroke-width="1.2381"/>
<path d="M4018.14 1130.02C4018.14 1130.02 3115.31 1609.04 2723.1 1244.25C2330.89 879.461 1525.63 -106.205 874.311 634.427C222.998 1375.06 -533 994.057 -533 994.057" stroke="#818181" stroke-opacity="0.34" stroke-width="8"/>
<path d="M4676.56 846.667C4676.56 846.667 3983.09 1004.74 3745.3 569.207C3507.51 133.671 3037.62 -133.842 2316.67 1048.22C1595.73 2230.29 1602.36 427.344 1070.41 933.995C538.469 1440.65 27.3655 1543.82 -427.844 -139" stroke="#818181" stroke-opacity="0.34"/>
<path d="M4034.2 1097.45C4034.2 1097.45 3797.08 1218.14 3523.25 1279.87C3249.41 1341.59 2922.09 1362.93 2713.18 1213.81C2312.95 886.75 1527.5 -118.85 879.093 616.075C230.691 1351 -519.334 981.808 -530.437 940.764" stroke="#818181" stroke-opacity="0.34" stroke-width="7.82927"/>
<path d="M4050.26 1064.98C4050.26 1064.98 3801.73 1186.6 3528.8 1235.89C3255.86 1285.18 2924.97 1299.3 2703.27 1183.46C2295.02 894.13 1529.37 -131.404 883.874 597.815C238.383 1327.03 -505.668 969.65 -527.874 887.561" stroke="#818181" stroke-opacity="0.34" stroke-width="7.65854"/>
<path d="M4066.32 1032.59C4066.32 1032.59 3806.38 1155.15 3534.35 1192.01C3262.32 1228.87 2927.86 1235.76 2693.35 1153.21C2277.09 901.602 1531.24 -143.866 888.658 579.646C246.078 1303.16 -492 957.583 -525.308 834.45" stroke="#818181" stroke-opacity="0.34" stroke-width="7.4878"/>
<path d="M4082.38 1000.3C4082.38 1000.3 3811.03 1123.79 3539.9 1148.22C3268.77 1172.65 2930.75 1172.32 2683.44 1123.04C2259.16 909.167 1533.11 -156.234 893.442 561.571C253.773 1279.38 -478.332 945.61 -522.743 781.433" stroke="#818181" stroke-opacity="0.34" stroke-width="7.31707"/>
<path d="M4098.44 968.095C4098.44 968.095 3815.68 1092.52 3545.45 1104.52C3275.22 1116.52 2933.64 1108.97 2673.53 1092.97C2241.23 916.823 1534.98 -168.511 898.224 543.586C261.468 1255.68 -464.665 933.728 -520.178 728.506" stroke="#818181" stroke-opacity="0.34" stroke-width="7.14634"/>
<path d="M4114.5 935.985C4114.5 935.985 3820.33 1061.35 3551 1060.91C3281.68 1060.48 2936.53 1045.71 2663.62 1062.99C2223.3 924.571 1536.85 -180.697 903.008 525.694C269.162 1232.09 -450.997 921.939 -517.613 675.672" stroke="#818181" stroke-opacity="0.34" stroke-width="6.97561"/>
<path d="M4130.56 903.97C4130.56 903.97 3824.99 1030.27 3556.56 1017.4C3288.13 1004.54 2939.42 982.544 2653.71 1033.11C2205.37 932.414 1538.73 -192.788 907.792 507.897C276.859 1208.58 -437.328 910.243 -515.047 622.932" stroke="#818181" stroke-opacity="0.34" stroke-width="6.80488"/>
<path d="M4146.61 872.044C4146.61 872.044 3829.63 999.275 3562.11 973.978C3294.58 948.682 2942.3 919.469 2643.79 1003.31C2187.44 940.346 1540.6 -204.789 912.574 490.188C284.552 1185.17 -423.661 898.637 -512.483 570.282" stroke="#818181" stroke-opacity="0.34" stroke-width="6.63415"/>
<path d="M4162.67 840.211C4162.67 840.211 3834.28 968.377 3567.66 930.649C3301.03 892.921 2945.19 856.487 2633.88 973.608C2169.51 948.372 1542.47 -216.697 917.357 472.573C292.246 1161.84 -409.995 887.124 -509.919 517.725" stroke="#818181" stroke-opacity="0.34" stroke-width="6.46341"/>
<path d="M4178.73 808.469C4178.73 808.469 3838.93 937.569 3573.21 887.41C3307.49 837.25 2948.08 793.595 2623.97 943.995C2151.58 956.487 1544.34 -228.515 922.14 455.048C299.941 1138.61 -396.326 875.702 -507.353 465.258" stroke="#818181" stroke-opacity="0.34" stroke-width="6.29268"/>
<path d="M4194.79 776.819C4194.79 776.819 3843.59 906.854 3578.76 844.263C3313.94 781.672 2950.97 730.796 2614.06 914.475C2133.65 964.696 1546.21 -240.24 926.924 437.617C307.636 1115.47 -382.658 864.372 -504.788 412.884" stroke="#818181" stroke-opacity="0.34" stroke-width="6.12195"/>
<path d="M4210.85 745.26C4210.85 745.26 3848.24 876.23 3584.31 801.207C3320.39 726.185 2953.86 668.087 2604.14 885.046C2115.72 972.995 1548.08 -251.875 931.707 420.275C315.331 1092.43 -368.991 853.133 -502.223 360.6" stroke="#818181" stroke-opacity="0.34" stroke-width="5.95122"/>
<path d="M4226.91 713.79C4226.91 713.79 3852.89 845.694 3589.86 758.24C3326.84 670.786 2956.75 605.467 2594.23 855.706C2097.79 981.383 1549.96 -263.42 936.49 403.023C323.025 1069.47 -355.324 841.983 -499.658 308.406" stroke="#818181" stroke-opacity="0.34" stroke-width="5.78049"/>
<path d="M4242.97 682.409C4242.97 682.409 3857.54 815.249 3595.42 715.363C3333.3 615.478 2959.64 542.937 2584.32 826.456C2079.86 989.86 1551.83 -274.876 941.274 385.86C330.72 1046.6 -341.655 830.922 -497.092 256.301" stroke="#818181" stroke-opacity="0.34" stroke-width="5.60976"/>
<path d="M4259.03 651.118C4259.03 651.118 3862.19 784.892 3600.97 672.575C3339.75 560.258 2962.52 480.497 2574.4 797.294C2061.93 998.427 1553.7 -286.243 946.057 368.787C338.414 1023.82 -327.988 819.951 -494.528 204.286" stroke="#818181" stroke-opacity="0.34" stroke-width="5.43902"/>
<path d="M4275.09 636.222C4275.09 636.222 3866.84 770.931 3606.52 646.182C3346.2 521.434 2965.41 434.451 2564.49 784.528C2044 1023.39 1555.57 -281.215 950.84 368.108C346.109 1017.43 -314.32 825.375 -491.963 168.665" stroke="#818181" stroke-opacity="0.34" stroke-width="5.26829"/>
<path d="M4291.15 644.64C4291.15 644.64 3871.49 780.284 3612.07 643.104C3352.65 505.924 2968.3 411.72 2554.58 795.076C2026.07 1071.67 1557.44 -252.872 955.623 390.744C353.803 1034.36 -300.653 854.113 -489.398 156.359" stroke="#818181" stroke-opacity="0.34" stroke-width="5.09756"/>
<path d="M4307.21 653.058C4307.21 653.058 3876.14 789.636 3617.62 640.024C3359.11 490.412 2971.19 388.988 2544.67 805.624C2008.13 1119.94 1559.31 -224.53 960.405 413.379C361.497 1051.29 -286.986 882.85 -486.834 144.052" stroke="#818181" stroke-opacity="0.34" stroke-width="4.92683"/>
<path d="M4323.27 661.476C4323.27 661.476 3880.79 798.988 3623.17 636.945C3365.56 474.902 2974.08 366.256 2534.76 816.172C1990.2 1168.22 1561.19 -196.187 965.19 436.015C369.193 1068.22 -273.317 911.589 -484.268 131.746" stroke="#818181" stroke-opacity="0.34" stroke-width="4.7561"/>
<path d="M4339.32 669.893C4339.32 669.893 3885.43 808.34 3628.72 633.866C3372.01 459.391 2976.96 343.524 2524.84 826.719C1972.27 1216.49 1563.05 -167.845 969.969 458.65C376.884 1085.15 -259.653 940.326 -481.707 119.438" stroke="#818181" stroke-opacity="0.34" stroke-width="4.58537"/>
<path d="M4355.38 678.311C4355.38 678.311 3890.09 817.693 3634.28 630.787C3378.46 443.881 2979.85 320.793 2514.93 837.267C1954.34 1264.77 1564.93 -139.503 974.755 481.286C384.581 1102.07 -245.983 969.064 -479.139 107.132" stroke="#818181" stroke-opacity="0.34" stroke-width="4.41463"/>
<path d="M4371.44 686.73C4371.44 686.73 3894.74 827.047 3639.83 627.709C3384.92 428.372 2982.74 298.062 2505.01 847.816C1936.41 1313.05 1566.8 -111.159 979.537 503.922C392.274 1119 -232.317 997.803 -476.575 94.8267" stroke="#818181" stroke-opacity="0.34" stroke-width="4.2439"/>
<path d="M4387.5 695.147C4387.5 695.147 3899.39 836.398 3645.38 624.629C3391.37 412.86 2985.63 275.329 2495.1 858.363C1918.48 1361.32 1568.67 -82.818 984.32 526.557C399.969 1135.93 -218.649 1026.54 -474.01 82.519" stroke="#818181" stroke-opacity="0.34" stroke-width="4.07317"/>
<path d="M4403.56 703.565C4403.56 703.565 3904.04 845.751 3650.93 621.55C3397.82 397.35 2988.52 252.598 2485.19 868.911C1900.55 1409.6 1570.54 -54.4757 989.103 549.192C407.663 1152.86 -204.981 1055.28 -471.445 70.2124" stroke="#818181" stroke-opacity="0.34" stroke-width="3.90244"/>
<path d="M4419.62 711.982C4419.62 711.982 3908.69 855.103 3656.48 618.471C3404.27 381.839 2991.41 229.865 2475.28 879.458C1882.62 1457.87 1572.41 -26.1339 993.886 571.827C415.358 1169.79 -191.314 1084.01 -468.881 57.9053" stroke="#818181" stroke-opacity="0.34" stroke-width="3.73171"/>
<path d="M4435.68 720.401C4435.68 720.401 3913.34 864.456 3662.03 615.392C3410.72 366.329 2994.29 207.135 2465.36 890.006C1864.69 1506.15 1574.29 2.20941 998.668 594.464C423.051 1186.72 -177.648 1112.75 -466.317 45.5996" stroke="#818181" stroke-opacity="0.34" stroke-width="3.56098"/>
<path d="M4451.73 728.818C4451.73 728.818 3917.99 873.808 3667.58 612.313C3417.18 350.818 2997.18 184.402 2455.45 900.554C1846.76 1554.42 1576.16 30.5512 1003.45 617.099C430.744 1203.65 -163.982 1141.49 -463.754 33.2925" stroke="#818181" stroke-opacity="0.34" stroke-width="3.39024"/>
<path d="M4467.79 737.236C4467.79 737.236 3922.64 883.16 3673.13 609.234C3423.63 335.307 3000.07 161.671 2445.54 911.101C1828.83 1602.7 1578.03 58.8935 1008.24 639.734C438.441 1220.57 -150.311 1170.23 -461.186 20.9858" stroke="#818181" stroke-opacity="0.34" stroke-width="3.21951"/>
<path d="M4483.85 745.654C4483.85 745.654 3927.29 892.513 3678.69 606.155C3430.08 319.797 3002.96 138.939 2435.63 921.649C1810.9 1650.98 1579.9 87.2363 1013.02 662.37C446.136 1237.5 -136.644 1198.97 -458.621 8.67969" stroke="#818181" stroke-opacity="0.34" stroke-width="3.04878"/>
<path d="M4499.91 754.072C4499.91 754.072 3931.94 901.866 3684.24 603.076C3436.54 304.287 3005.85 116.208 2425.71 932.197C1792.97 1699.25 1581.77 115.579 1017.8 685.005C453.83 1254.43 -122.976 1227.7 -456.056 -3.62695" stroke="#818181" stroke-opacity="0.34" stroke-width="2.87805"/>
<path d="M4515.97 762.49C4515.97 762.49 3936.59 911.218 3689.79 599.997C3442.99 288.776 3008.74 93.4759 2415.8 942.745C1775.04 1747.53 1583.64 143.921 1022.58 707.641C461.524 1271.36 -109.31 1256.44 -453.492 -15.9336" stroke="#818181" stroke-opacity="0.34" stroke-width="2.70732"/>
<path d="M4532.03 770.907C4532.03 770.907 3941.24 920.571 3695.34 596.918C3449.44 273.266 3011.63 70.7442 2405.89 953.293C1757.11 1795.8 1585.52 172.263 1027.37 730.276C469.219 1288.29 -95.6412 1285.18 -450.926 -28.2402" stroke="#818181" stroke-opacity="0.34" stroke-width="2.53659"/>
<path d="M4548.09 779.325C4548.09 779.325 3945.89 929.923 3700.89 593.839C3455.89 257.755 3014.51 48.0124 2395.98 963.84C1739.17 1844.08 1587.39 200.605 1032.15 752.912C476.914 1305.22 -81.9743 1313.92 -448.362 -40.5469" stroke="#818181" stroke-opacity="0.34" stroke-width="2.36585"/>
<path d="M4564.15 787.743C4564.15 787.743 3950.54 939.276 3706.44 590.76C3462.35 242.245 3017.4 25.2807 2386.06 974.388C1721.24 1892.36 1589.26 228.948 1036.93 775.547C484.609 1322.15 -68.3058 1342.66 -445.796 -52.8535" stroke="#818181" stroke-opacity="0.34" stroke-width="2.19512"/>
<path d="M4580.21 796.16C4580.21 796.16 3955.19 948.627 3711.99 587.681C3468.8 226.734 3020.29 2.54847 2376.15 984.935C1703.31 1940.63 1591.13 257.29 1041.72 798.182C492.304 1339.07 -54.6379 1371.39 -443.231 -65.1606" stroke="#818181" stroke-opacity="0.34" stroke-width="2.02439"/>
<path d="M4596.27 804.578C4596.27 804.578 3959.84 957.98 3717.54 584.602C3475.25 211.223 3023.18 -20.1828 2366.24 995.483C1685.38 1988.91 1593 285.632 1046.5 820.818C499.996 1356 -40.9722 1400.13 -440.668 -77.4668" stroke="#818181" stroke-opacity="0.34" stroke-width="1.85366"/>
<path d="M4612.33 812.996C4612.33 812.996 3964.49 967.333 3723.1 581.523C3481.7 195.713 3026.07 -42.9146 2356.33 1006.03C1667.45 2037.18 1594.87 313.975 1051.28 843.454C507.692 1372.93 -27.3041 1428.87 -438.103 -89.7734" stroke="#818181" stroke-opacity="0.34" stroke-width="1.68293"/>
<path d="M4628.38 821.414C4628.38 821.414 3969.14 976.685 3728.65 578.444C3488.15 180.202 3028.95 -65.6463 2346.41 1016.58C1649.52 2085.46 1596.74 342.317 1056.06 866.089C515.385 1389.86 -13.6374 1457.61 -435.539 -102.08" stroke="#818181" stroke-opacity="0.34" stroke-width="1.5122"/>
<path d="M4644.44 829.831C4644.44 829.831 3973.79 986.037 3734.2 575.364C3494.61 164.691 3031.84 -88.3785 2336.5 1027.13C1631.59 2133.73 1598.62 370.659 1060.85 888.724C523.081 1406.79 0.0307705 1486.34 -432.973 -114.387" stroke="#818181" stroke-opacity="0.34" stroke-width="1.34146"/>
<path d="M4660.5 838.249C4660.5 838.249 3978.44 995.39 3739.75 572.285C3501.06 149.181 3034.73 -111.11 2326.59 1037.67C1613.66 2182.01 1600.49 399.001 1065.63 911.359C530.774 1423.72 13.6974 1515.08 -430.409 -126.694" stroke="#818181" stroke-opacity="0.34" stroke-width="1.17073"/>
</g>
<defs>
<clipPath id="clip0_47_1489">
<rect width="3901" height="1599" fill="white"/>
</clipPath>
</defs>
</svg>
