  <svg 
                width="397" height="171" viewBox="0 0 397 171" fill="none" xmlns="http://www.w3.org/2000/svg">
                <g filter="url(#filter0_dd_997_1467)">
                    <path fill-rule="evenodd" clip-rule="evenodd" d="M157.477 26.059C159.975 22.5536 163.731 16.764 163.926 16.7192C164.088 16.6746 179.721 16.6074 198.63 16.6074L233.043 16.5851L238.978 26.059L244.914 34.4608L257.433 34.5502L269.985 34.6396L271.446 33.7007C274.266 31.8452 274.429 31.8227 286.202 31.8227C291.911 31.8227 301.284 31.8898 307.057 31.9793L317.5 32.1134V32.8288V33.5666L309.977 33.7007C305.824 33.7677 297.099 33.8795 290.613 33.9466C279.652 34.0584 278.71 34.103 277.316 34.5278C275.66 35.0197 273.91 36.0927 273.196 37.0094L272.709 37.6353H285.781H298.852L299.403 36.9646C299.694 36.5846 300.344 36.1822 300.797 36.0704C301.934 35.7797 326.581 35.7797 327.718 36.0704C328.17 36.1822 328.82 36.5846 329.112 36.9646L329.663 37.6353H350.712H371.763L373.807 36.2939C375.493 35.1538 376.012 34.9526 376.986 34.9526C378.088 34.9526 378.152 34.9973 378.152 35.668C378.152 36.2716 377.762 36.674 376.044 37.8589L373.904 39.3343L374 41.9724L374.099 44.6103L378.38 41.7265L382.661 38.8649L382.856 35.7797L383.049 32.717H381.235H379.45V31.9345V31.152H382.498H385.548L385.775 35.8692L386 40.5863L383.148 42.643C376.173 47.5837 375.98 47.6955 374.942 47.6955H373.936L370.043 47.6947L360.443 47.6955H350.843L344.745 51.7196L338.648 55.7436L331.804 55.6095L324.96 55.453V54.7376C324.96 54.0446 324.992 54.0222 326.68 53.8657C327.587 53.7987 330.118 53.7316 332.259 53.7316L336.151 53.7093L342.15 49.3945L348.151 45.0575L359.113 45.0351L370.043 45.0128V43.6491C370.043 42.576 369.947 42.3301 369.655 42.4866C369.395 42.6207 365.082 42.7772 359.21 42.8443L349.222 42.956L342.182 47.7626L335.178 52.5691L321.393 52.4573L307.609 52.3455L303.78 49.6852L299.954 47.0248H294.959H289.931V46.2647V45.527L292.623 45.3928C294.084 45.3034 296.971 45.2363 299.015 45.2363L302.744 45.2587L306.343 47.6508L309.944 50.0429L321.262 49.9758L332.582 49.9311L339.394 45.2363L346.204 40.5416L356.909 40.4745C363.362 40.4521 360.087 40.4074 348.572 40.3627C332.323 40.318 329.5 40.3627 329.5 40.6311C329.5 40.8099 329.048 41.2123 328.497 41.5252L327.491 42.1065H314.193H300.861L299.662 41.2123L298.461 40.318H270.44H242.416L243.551 41.1005L244.687 41.8829L258.405 42.0171L272.093 42.1735V42.889V43.6043L264.083 43.7385C259.639 43.8279 252.892 43.895 249.065 43.895H242.092L239.497 42.1065L236.902 40.318L227.659 33.8856L198 33.6167L169.278 33.8856L160.034 40.3404L157.31 42.1065L154.585 43.895H148.358C144.952 43.895 138.174 43.8279 133.341 43.7385L124.519 43.6043V42.889V42.1735L138.336 42.0394L152.185 41.9277L153.353 41.1228L154.52 40.318H126.238C98.3771 40.318 97.9554 40.318 97.7609 40.7652C97.6635 41.011 97.1771 41.4135 96.7231 41.6593C95.9121 42.0841 95.458 42.1065 82.5819 42.1065H69.2838L68.0512 41.2123L66.8188 40.318H48.1044C37.7904 40.318 29.4549 40.3627 29.5522 40.4521C29.6495 40.5193 34.4173 40.5639 40.1582 40.5416L50.537 40.5193L57.4129 45.1693L64.2565 49.8193L75.576 49.9311L86.9281 50.0429L90.5607 47.6508L94.1933 45.2363H98.4095C100.745 45.2363 103.599 45.3034 104.832 45.3928L107.005 45.527V46.2647V47.0248H101.913H96.8528L93.1552 49.6852L89.4902 52.3232L75.641 52.4573L61.7591 52.5691L54.7534 47.7626L47.7477 42.956L37.7256 42.8443C29.3576 42.7325 27.6062 42.6654 27.1521 42.3748C26.6008 42.0618 26.5683 42.1288 26.5683 43.515V45.0128H37.5635H48.5584L54.5263 49.2604L60.4941 53.5081L63.8674 53.6198C65.7486 53.6869 68.181 53.7987 69.3162 53.8657L71.3272 53.9999V54.76V55.5201H68.3431C66.6891 55.5201 63.7377 55.5871 61.7591 55.6542L58.1915 55.7884L52.191 51.7643L46.1908 47.7179H36.3958L26.5683 47.6955L23.0006 47.6947L21.9627 47.6955C21.0221 47.6955 20.341 47.3154 15.9624 44.1857L11 40.6534V38.2836C11 36.9869 11.0973 34.8408 11.227 33.5442L11.4216 31.152H14.1461H16.8381V31.9345C16.8381 32.717 16.8381 32.717 15.3461 32.717H13.8542L14.0812 35.7797L14.3083 38.8649L18.6544 41.8829L23.0006 44.901V42.1288V39.3791L20.8924 37.8812C19.2058 36.674 18.7842 36.2269 18.7842 35.668C18.7842 34.9973 18.849 34.9526 19.9193 34.9526C20.8275 34.9526 21.4113 35.1986 23.0979 36.2939L25.2061 37.6353H46.3206C63.6403 37.6353 67.435 37.5906 67.435 37.3447C67.435 37.1659 67.8243 36.8081 68.2784 36.4952L69.1217 35.9586L82.1279 35.8915C96.3338 35.8244 96.6257 35.8469 97.5988 37.0988L98.0204 37.6353H111.156H124.259L123.708 37.0541C122.605 35.8916 121.405 35.1314 119.913 34.5949L118.389 34.0584L103.534 33.9466C95.3609 33.8795 86.6035 33.7677 84.0738 33.7007L79.4357 33.5666V32.8511V32.1134L89.2307 31.9793C94.6147 31.8898 103.988 31.8227 110.053 31.8227C119.65 31.8227 121.833 31.8227 123.644 32.6486C124.196 32.9001 124.713 33.228 125.395 33.656L126.952 34.6396L139.438 34.5502L151.925 34.4608L157.477 26.059ZM242.092 36.5175L236.254 28.3169L230.416 19.0666L198.306 19.0443H166.196L159.975 28.3169L154.845 36.5622L141.449 36.4728L128.054 36.4057L128.152 36.9646L128.249 37.5235L143.363 37.5906H156.491L159.368 32.8699L162.626 27.4023H166.488C174.499 27.4023 200.689 27.3353 200.689 27.3353H226.296L233.173 27.4695L236.902 32.6609L240.701 37.6353H253.476C266.838 37.6353 268.492 37.5906 268.655 37.2776C268.749 37.1056 268.831 36.9676 268.803 36.8571C268.687 36.3928 266.648 36.4144 255.487 36.4504L242.092 36.5175ZM177.743 29.9287L175.732 29.7721C174.629 29.705 172.034 29.638 169.926 29.638H166.164L165.061 30.4204L163.959 31.2029H169.959H175.959L176.867 30.5545L177.743 29.9287ZM233.011 31.2029L231.778 30.4204L230.546 29.638L226.426 29.6827C224.156 29.705 221.594 29.7497 220.718 29.7944L219.129 29.8839L220.069 30.5545L220.977 31.2029H226.978H233.011Z" fill="white" />
                </g>
                <defs>
                    <filter id="filter0_dd_997_1467" x="0" y="0.585129" width="397" height="170.2032" filterUnits="userSpaceOnUse" color-interpolation-filters="sRGB">
                        <feFlood flood-opacity="0" result="BackgroundImageFix" />
                        <feColorMatrix in="SourceAlpha" type="matrix" values="0 0 0 0 0 0 0 0 0 0 0 0 0 0 0 0 0 0 127 0" result="hardAlpha" />
                        <feOffset dy="-5" />
                        <feGaussianBlur stdDeviation="5.5" />
                        <feComposite in2="hardAlpha" operator="out" />
                        <feColorMatrix type="matrix" values="0 0 0 0 0 0 0 0 0 0.5655 0 0 0 0 0.975 0 0 0 1 0" />
                        <feBlend mode="normal" in2="BackgroundImageFix" result="effect1_dropShadow_997_1467" />
                        <feColorMatrix in="SourceAlpha" type="matrix" values="0 0 0 0 0 0 0 0 0 0 0 0 0 0 0 0 0 0 127 0" result="hardAlpha" />

                        <feOffset dy="15" />
                        <feGaussianBlur stdDeviation="15" />
                        <feComposite in2="hardAlpha" operator="out" />
                        <feColorMatrix type="matrix" values="0 0 0 0 0 0 0 0 0 0.564706 0 0 0 0 0.976471 0 0 0 1 0" />
                        <feBlend mode="normal" in2="effect1_dropShadow_997_1467" result="effect2_dropShadow_997_1467" />
                        <feBlend mode="normal" in="SourceGraphic" in2="effect2_dropShadow_997_1467" result="shape" />


                        <feBlend mode="normal" in2="BackgroundImageFix" result="effect1_dropShadow_997_14675" />
                        <feOffset dy="55" />
                        <feGaussianBlur stdDeviation="25" />
                        <feComposite in2="hardAlpha" operator="out" />
                        <feColorMatrix type="matrix" values="0 0 0 0 0 0 0 0 0 0.564706 0 0 0 0 0.976471 0 0 0 0.75 0" />
                        <feBlend mode="normal" in2="effect1_dropShadow_997_14675" result="effect2_dropShadow_997_1467" />
                        <feBlend mode="normal" in="SourceGraphic" in2="effect2_dropShadow_997_1467" result="shape" />



                    </filter>
                </defs>
            </svg>
