<svg width="320" height="83" viewBox="0 0 320 83" fill="none" xmlns="http://www.w3.org/2000/svg">
<path d="M0 27.393L11.9041 32.2557V27.393H85.952H124.188L129.87 18L160 18L189.35 18L196.431 27.393H240H308.347V32.2557L320 27.393L320 94H0V27.393Z" fill="url(#paint0_linear_122_2100)"/>
<g filter="url(#filter0_d_122_2100)">
<path fill-rule="evenodd" clip-rule="evenodd" d="M124.994 21.3165C127.125 19.3494 130.331 16.1004 130.497 16.0753C130.635 16.0502 143.976 16.0125 160.111 16.0125L189.477 16L194.542 21.3165L199.606 26.0314L210.29 26.0816L221 26.1318L222.247 25.6049C224.654 24.5636 224.793 24.551 234.839 24.551C239.711 24.551 247.709 24.5887 252.636 24.6389L261.547 24.7141V25.1156V25.5296L255.127 25.6049C251.583 25.6425 244.138 25.7052 238.604 25.7429C229.249 25.8056 228.446 25.8307 227.256 26.0691C225.843 26.3451 224.35 26.9472 223.74 27.4617L223.325 27.8129H234.48H245.633L246.104 27.4365C246.353 27.2233 246.907 26.9974 247.293 26.9347C248.263 26.7716 269.296 26.7716 270.266 26.9347C270.652 26.9974 271.207 27.2233 271.456 27.4365L271.926 27.8129H289.888H307.851L309.596 27.0602C311.034 26.4203 311.477 26.3075 312.308 26.3075C313.249 26.3075 313.303 26.3325 313.303 26.7089C313.303 27.0476 312.97 27.2734 311.504 27.9384L309.678 28.7664L309.76 30.2468L309.844 31.7271L313.497 30.1088L317.151 28.5029L317.317 26.7716L317.482 25.0528H315.934H314.411V24.6137V24.1746H317.011H319.614L319.808 26.8218L320 29.4689L317.566 30.6231C311.614 33.3957 311.449 33.4585 310.564 33.4585H309.705L306.383 33.458L298.191 33.4585H289.999L284.796 35.7167L279.593 37.9749L273.753 37.8996L267.912 37.8118V37.4103C267.912 37.0214 267.94 37.0089 269.38 36.9211C270.154 36.8834 272.314 36.8458 274.141 36.8458L277.463 36.8333L282.581 34.4119L287.703 31.9781L297.057 31.9655L306.383 31.953V31.1877C306.383 30.5855 306.301 30.4475 306.052 30.5353C305.831 30.6106 302.15 30.6984 297.139 30.7361L288.616 30.7988L282.609 33.4961L276.632 36.1934L264.869 36.1307L253.106 36.0679L249.839 34.575L246.574 33.0821H242.311H238.021V32.6555V32.2415L240.318 32.1662C241.565 32.1161 244.028 32.0784 245.773 32.0784L248.955 32.091L252.026 33.4334L255.099 34.7758L264.757 34.7381L274.417 34.713L280.23 32.0784L286.04 29.4439L295.175 29.4062C300.682 29.3936 297.888 29.3686 288.061 29.3434C274.195 29.3184 271.787 29.3435 271.787 29.4941C271.787 29.5944 271.401 29.8202 270.931 29.9958L270.072 30.3221H258.725H247.348L246.325 29.8202L245.3 29.3184H221.389H197.475L198.444 29.7575L199.413 30.1966L211.119 30.2718L222.8 30.3597V30.7612V31.1626L215.964 31.2379C212.172 31.2881 206.415 31.3257 203.149 31.3257H197.198L194.984 30.3221L192.77 29.3184L184.882 25.7087L159.573 25.5577L135.064 25.7087L127.176 29.3309L124.851 30.3221L122.526 31.3257H117.212C114.306 31.3257 108.522 31.2881 104.398 31.2379L96.8695 31.1626V30.7612V30.3597L108.66 30.2844L120.478 30.2217L121.474 29.77L122.471 29.3184H98.3364C74.5618 29.3184 74.202 29.3184 74.036 29.5693C73.9529 29.7073 73.5378 29.9332 73.1503 30.0711C72.4583 30.3095 72.0709 30.3221 61.0832 30.3221H49.7355L48.6837 29.8202L47.6321 29.3184H31.6624C22.8611 29.3184 15.7482 29.3435 15.8312 29.3936C15.9143 29.4313 19.9828 29.4564 24.8817 29.4439L33.7382 29.4313L39.6057 32.0408L45.4455 34.6503L55.1048 34.713L64.792 34.7758L67.8918 33.4334L70.9916 32.0784H74.5894C76.5824 32.0784 79.0178 32.1161 80.0696 32.1662L81.924 32.2415V32.6555V33.0821H77.5787H73.2611L70.1058 34.575L66.9783 36.0554L55.1603 36.1307L43.3144 36.1934L37.3362 33.4961L31.3581 30.7988L22.8058 30.7361C15.6652 30.6733 14.1706 30.6357 13.7832 30.4726C13.3126 30.297 13.2849 30.3346 13.2849 31.1124V31.953H22.6675H32.0499L37.1424 34.3367L42.235 36.7203L45.1135 36.7831C46.7188 36.8207 48.7944 36.8834 49.7632 36.9211L51.4792 36.9963V37.4229V37.8494H48.9328C47.5214 37.8494 45.0028 37.8871 43.3144 37.9247L40.2701 38L35.1497 35.7418L30.0295 33.471H21.6711L13.2849 33.4585L10.2405 33.458L9.35483 33.4585C8.55219 33.4585 7.97097 33.2452 4.23458 31.4888L0 29.5066V28.1767C0 27.4491 0.0830299 26.2447 0.193737 25.5171L0.359802 24.1746H2.68467H4.98186V24.6137C4.98186 25.0528 4.98186 25.0528 3.70871 25.0528H2.43558L2.6293 26.7716L2.82305 28.5029L6.53179 30.1966L10.2405 31.8903V30.3346V28.7915L8.44148 27.9509C7.00228 27.2734 6.64248 27.0225 6.64248 26.7089C6.64248 26.3325 6.69784 26.3075 7.61117 26.3075C8.38614 26.3075 8.88432 26.4455 10.3235 27.0602L12.1225 27.8129H30.1402C44.9197 27.8129 48.1579 27.7878 48.1579 27.6498C48.1579 27.5495 48.4901 27.3487 48.8775 27.1731L49.5972 26.872L60.6958 26.8343C72.8181 26.7967 73.0672 26.8093 73.8976 27.5118L74.2574 27.8129H85.4665H96.648L96.1775 27.4867C95.2366 26.8344 94.2126 26.4078 92.9393 26.1067L91.6386 25.8056L78.9625 25.7429C71.988 25.7052 64.515 25.6425 62.3563 25.6049L58.3985 25.5296V25.1281V24.7141L66.7569 24.6389C71.3512 24.5887 79.35 24.551 84.5257 24.551C92.7151 24.551 94.5779 24.551 96.1233 25.0145C96.5938 25.1556 97.0351 25.3396 97.6168 25.5798L98.9453 26.1318L109.601 26.0816L120.256 26.0314L124.994 21.3165ZM197.198 27.1856L192.217 22.5836L187.235 17.3926L159.835 17.38H132.434L127.125 22.5836L122.747 27.2107L111.317 27.1605L99.8862 27.1229L99.9693 27.4365L100.052 27.7502L112.95 27.7878H124.152L126.607 25.1387L129.387 22.0704H132.683C139.52 22.0704 161.868 22.0327 161.868 22.0327H183.72L189.587 22.1081L192.77 25.0214L196.012 27.8129H206.913C218.316 27.8129 219.727 27.7878 219.866 27.6122C219.946 27.5157 220.015 27.4382 219.992 27.3762C219.893 27.1156 218.153 27.1277 208.629 27.148L197.198 27.1856ZM142.287 23.4881L140.571 23.4002C139.63 23.3626 137.416 23.325 135.617 23.325H132.407L131.466 23.7641L130.525 24.2032H135.645H140.765L141.54 23.8393L142.287 23.4881ZM189.449 24.2032L188.397 23.7641L187.346 23.325L183.83 23.3501C181.893 23.3626 179.707 23.3877 178.959 23.4128L177.603 23.463L178.406 23.8393L179.181 24.2032H184.301H189.449Z" fill="white"/>
</g>
    <defs>

        <!-- <filter id="filter0_d_122_2100" x="-11" y="0" width="342" height="44" filterUnits="userSpaceOnUse" color-interpolation-filters="sRGB">
            <feFlood flood-opacity="0" result="BackgroundImageFix"/>
            <feColorMatrix in="SourceAlpha" type="matrix" values="0 0 0 0 0 0 0 0 0 0 0 0 0 0 0 0 0 0 127 0" result="hardAlpha"/>
            <feOffset dy="-5"/>
            <feGaussianBlur stdDeviation="5.5"/>
            <feComposite in2="hardAlpha" operator="out"/>
            <feColorMatrix type="matrix" values="0 0 0 0 0.273281 0 0 0 0 0.28885 0 0 0 0 0.6625 0 0 0 1 0"/>
            <feBlend mode="normal" in2="BackgroundImageFix" result="effect1_dropShadow_122_2100"/>
            <feBlend mode="normal" in="SourceGraphic" in2="effect1_dropShadow_122_2100" result="shape"/>
        </filter> -->
    <filter id="filter0_d_1410_1090" x="-11" y="0.296875" width="397" height="61.2031" filterUnits="userSpaceOnUse" color-interpolation-filters="sRGB">
            <feFlood flood-opacity="0" result="BackgroundImageFix"/>
            <feColorMatrix in="SourceAlpha" type="matrix" values="0 0 0 0 0 0 0 0 0 0 0 0 0 0 0 0 0 0 127 0" result="hardAlpha"/>
            <feOffset dy="-5"/>
            <feGaussianBlur stdDeviation="5.5"/>
            <feComposite in2="hardAlpha" operator="out"/>
            <feColorMatrix type="matrix" values="0 0 0 0 0 0 0 0 0 0.5655 0 0 0 0 0.975 0 0 0 1 0"/>
            <feBlend mode="normal" in2="BackgroundImageFix" result="effect1_dropShadow_1410_1090"/>
            <feBlend mode="normal" in="SourceGraphic" in2="effect1_dropShadow_1410_1090" result="shape"/>
            </filter>

        <linearGradient id="paint0_linear_122_2100" x1="160" y1="-101.929" x2="160" y2="94" gradientUnits="userSpaceOnUse">
            <stop stop-color="#005E94"/>
            <stop offset="0.5" stop-color="#005E94"/>
            <stop offset="1" stop-color="#005E94" stop-opacity="0"/>
        </linearGradient>



        <linearGradient id="paint0_linear_122_2100" x1="160" y1="-101.929" x2="160" y2="94" gradientUnits="userSpaceOnUse">
            <stop stop-color="#005E94"/>
            <stop offset="0.5" stop-color="#005E94"/>
            <stop offset="1" stop-color="#005E94" stop-opacity="0"/>
        </linearGradient>
    </defs>


</svg>
