<svg width="397" height="48" viewBox="0 0 397 48" fill="none" xmlns="http://www.w3.org/2000/svg">
<g filter="url(#filter0_d_1411_1624)">
<path fill-rule="evenodd" clip-rule="evenodd" d="M157.477 22.2832C159.975 19.9583 163.731 16.1186 163.926 16.0889C164.088 16.0593 179.721 16.0148 198.63 16.0148L233.043 16L238.978 22.2832L244.914 27.8553L257.433 27.9146L269.985 27.9739L271.446 27.3512C274.266 26.1206 274.429 26.1057 286.202 26.1057C291.911 26.1057 301.284 26.1502 307.057 26.2096L317.5 26.2985V26.7729V27.2623L309.977 27.3512C305.824 27.3957 297.099 27.4698 290.613 27.5143C279.652 27.5885 278.71 27.6181 277.316 27.8998C275.66 28.226 273.91 28.9376 273.196 29.5456L272.709 29.9607H285.781H298.852L299.403 29.5159C299.694 29.2639 300.344 28.997 300.797 28.9228C301.934 28.7301 326.581 28.7301 327.718 28.9228C328.17 28.997 328.82 29.2639 329.112 29.5159L329.663 29.9607H350.712H371.763L373.807 29.0711C375.493 28.3149 376.012 28.1815 376.986 28.1815C378.088 28.1815 378.152 28.2112 378.152 28.6559C378.152 29.0563 377.762 29.3231 376.044 30.109L373.904 31.0875L374 32.8371L374.099 34.5866L378.38 32.674L382.661 30.7762L382.856 28.7301L383.049 26.6988H381.235H379.45V26.1799V25.6609H382.498H385.548L385.775 28.7894L386 31.9178L383.148 33.2819C376.173 36.5586 375.98 36.6327 374.942 36.6327H373.936L370.043 36.6322L360.443 36.6327H350.843L344.745 39.3016L338.648 41.9703L331.804 41.8814L324.96 41.7776V41.3031C324.96 40.8435 324.992 40.8287 326.68 40.7249C327.587 40.6804 330.118 40.6359 332.259 40.6359L336.151 40.6211L342.15 37.7595L348.151 34.8832L359.113 34.8683L370.043 34.8535V33.9491C370.043 33.2374 369.947 33.0743 369.655 33.1781C369.395 33.267 365.082 33.3709 359.21 33.4154L349.222 33.4894L342.182 36.6772L335.178 39.865L321.393 39.7908L307.609 39.7167L303.78 37.9523L299.954 36.1879H294.959H289.931V35.6838V35.1945L292.623 35.1056C294.084 35.0463 296.971 35.0018 299.015 35.0018L302.744 35.0166L306.343 36.6031L309.944 38.1895L321.262 38.145L332.582 38.1154L339.394 35.0018L346.204 31.8882L356.909 31.8437C363.362 31.8289 360.087 31.7992 348.572 31.7695C332.323 31.7399 329.5 31.7696 329.5 31.9475C329.5 32.0661 329.048 32.333 328.497 32.5405L327.491 32.9261H314.193H300.861L299.662 32.333L298.461 31.7399H270.44H242.416L243.551 32.2589L244.687 32.7778L258.405 32.8667L272.093 32.9705V33.445V33.9194L264.083 34.0084C259.639 34.0677 252.892 34.1122 249.065 34.1122H242.092L239.497 32.9261L236.902 31.7399L227.659 27.4739L198 27.2955L169.278 27.4739L160.034 31.7547L157.31 32.9261L154.585 34.1122H148.358C144.952 34.1122 138.174 34.0677 133.341 34.0084L124.519 33.9194V33.445V32.9705L138.336 32.8815L152.185 32.8074L153.353 32.2737L154.52 31.7399H126.238C98.3771 31.7399 97.9554 31.7399 97.7609 32.0365C97.6635 32.1995 97.1771 32.4665 96.7231 32.6295C95.9121 32.9112 95.458 32.9261 82.5819 32.9261H69.2838L68.0512 32.333L66.8188 31.7399H48.1044C37.7904 31.7399 29.4549 31.7696 29.5522 31.8289C29.6495 31.8734 34.4173 31.903 40.1582 31.8882L50.537 31.8734L57.4129 34.9573L64.2565 38.0412L75.576 38.1154L86.9281 38.1895L90.5607 36.6031L94.1933 35.0018H98.4095C100.745 35.0018 103.599 35.0463 104.832 35.1056L107.005 35.1945V35.6838V36.1879H101.913H96.8528L93.1552 37.9523L89.4902 39.7019L75.641 39.7908L61.7591 39.865L54.7534 36.6772L47.7477 33.4894L37.7256 33.4154C29.3576 33.3412 27.6062 33.2967 27.1521 33.104C26.6008 32.8964 26.5683 32.9409 26.5683 33.8602V34.8535H37.5635H48.5584L54.5263 37.6706L60.4941 40.4877L63.8674 40.5618C65.7486 40.6063 68.181 40.6804 69.3162 40.7249L71.3272 40.8139V41.318V41.8221H68.3431C66.6891 41.8221 63.7377 41.8666 61.7591 41.911L58.1915 42L52.191 39.3312L46.1908 36.6476H36.3958L26.5683 36.6327L23.0006 36.6322L21.9627 36.6327C21.0221 36.6327 20.341 36.3807 15.9624 34.305L11 31.9623V30.3907C11 29.5307 11.0973 28.1074 11.227 27.2474L11.4216 25.6609H14.1461H16.8381V26.1799C16.8381 26.6988 16.8381 26.6988 15.3461 26.6988H13.8542L14.0812 28.7301L14.3083 30.7762L18.6544 32.7778L23.0006 34.7794V32.9409V31.1172L20.8924 30.1238C19.2058 29.3231 18.7842 29.0266 18.7842 28.6559C18.7842 28.2112 18.849 28.1815 19.9193 28.1815C20.8275 28.1815 21.4113 28.3446 23.0979 29.0711L25.2061 29.9607H46.3206C63.6403 29.9607 67.435 29.9311 67.435 29.7679C67.435 29.6494 67.8243 29.4121 68.2784 29.2046L69.1217 28.8487L82.1279 28.8042C96.3338 28.7597 96.6257 28.7746 97.5988 29.6049L98.0204 29.9607H111.156H124.259L123.708 29.5752C122.605 28.8042 121.405 28.3001 119.913 27.9443L118.389 27.5885L103.534 27.5143C95.3609 27.4698 86.6035 27.3957 84.0738 27.3512L79.4357 27.2623V26.7878V26.2985L89.2307 26.2096C94.6147 26.1502 103.988 26.1057 110.053 26.1057C119.65 26.1057 121.833 26.1057 123.644 26.6535C124.196 26.8202 124.713 27.0378 125.395 27.3216L126.952 27.9739L139.438 27.9146L151.925 27.8553L157.477 22.2832ZM242.092 29.2194L236.254 23.7806L230.416 17.6457L198.306 17.6309H166.196L159.975 23.7806L154.845 29.249L141.449 29.1897L128.054 29.1452L128.152 29.5159L128.249 29.8866L143.363 29.9311H156.491L159.368 26.8002L162.626 23.1741H166.488C174.499 23.1741 200.689 23.1296 200.689 23.1296H226.296L233.173 23.2186L236.902 26.6616L240.701 29.9607H253.476C266.838 29.9607 268.492 29.9311 268.655 29.7235C268.749 29.6094 268.831 29.5179 268.803 29.4446C268.687 29.1367 266.648 29.151 255.487 29.1749L242.092 29.2194ZM177.743 24.8496L175.732 24.7457C174.629 24.7013 172.034 24.6568 169.926 24.6568H166.164L165.061 25.1757L163.959 25.6946H169.959H175.959L176.867 25.2646L177.743 24.8496ZM233.011 25.6946L231.778 25.1757L230.546 24.6568L226.426 24.6865C224.156 24.7013 221.594 24.7309 220.718 24.7606L219.129 24.8199L220.069 25.2646L220.977 25.6946H226.978H233.011Z" fill="white"/>
</g>
<defs>
<filter id="filter0_d_1411_1624" x="0" y="0" width="397" height="48" filterUnits="userSpaceOnUse" color-interpolation-filters="sRGB">
<feFlood flood-opacity="0" result="BackgroundImageFix"/>
<feColorMatrix in="SourceAlpha" type="matrix" values="0 0 0 0 0 0 0 0 0 0 0 0 0 0 0 0 0 0 127 0" result="hardAlpha"/>
<feOffset dy="-5"/>
<feGaussianBlur stdDeviation="5.5"/>
<feComposite in2="hardAlpha" operator="out"/>
<feColorMatrix type="matrix" values="0 0 0 0 0 0 0 0 0 0.5655 0 0 0 0 0.975 0 0 0 1 0"/>
<feBlend mode="normal" in2="BackgroundImageFix" result="effect1_dropShadow_1411_1624"/>
<feBlend mode="normal" in="SourceGraphic" in2="effect1_dropShadow_1411_1624" result="shape"/>
</filter>
</defs>
</svg>
