<svg width="33" height="33" viewBox="0 0 33 33" fill="none" xmlns="http://www.w3.org/2000/svg">
<path d="M24.2347 8.38055C22.6241 7.70138 20.9238 7.21956 19.1772 6.94739C18.9382 7.34091 18.7219 7.74579 18.5293 8.16033C16.6689 7.90212 14.777 7.90212 12.9166 8.16033C12.7239 7.74583 12.5076 7.34096 12.2687 6.94739C10.521 7.22186 8.81961 7.70482 7.20737 8.3841C4.00668 12.7457 3.13902 16.999 3.57285 21.192C5.44726 22.4675 7.54525 23.4376 9.77564 24.06C10.2779 23.4379 10.7223 22.7779 11.1041 22.087C10.3788 21.8375 9.67878 21.5297 9.0121 21.1671C9.18756 21.0499 9.35917 20.9291 9.52499 20.8119C11.4649 21.6522 13.5822 22.0878 15.7259 22.0878C17.8695 22.0878 19.9868 21.6522 21.9267 20.8119C22.0945 20.938 22.2661 21.0588 22.4396 21.1671C21.7716 21.5303 21.0703 21.8387 20.3437 22.0888C20.7251 22.7793 21.1695 23.4388 21.6722 24.06C23.9045 23.4401 26.0041 22.4705 27.8788 21.1937C28.3879 16.3313 27.0093 12.1171 24.2347 8.38055ZM11.6536 18.6133C10.4447 18.6133 9.44593 17.6028 9.44593 16.3597C9.44593 15.1166 10.41 14.0972 11.6498 14.0972C12.8896 14.0972 13.8806 15.1166 13.8594 16.3597C13.8382 17.6028 12.8857 18.6133 11.6536 18.6133ZM19.7981 18.6133C18.5872 18.6133 17.5923 17.6028 17.5923 16.3597C17.5923 15.1166 18.5563 14.0972 19.7981 14.0972C21.0398 14.0972 22.0231 15.1166 22.0019 16.3597C21.9807 17.6028 21.0301 18.6133 19.7981 18.6133Z" fill="white"/>
</svg>
