<svg width="33" height="33" viewBox="0 0 33 33" fill="none" xmlns="http://www.w3.org/2000/svg">
<path d="M16.4951 5C10.1414 5 4.99512 10.2764 4.99512 16.7909C4.99512 22.0083 8.28699 26.4152 12.8582 27.9775C13.4332 28.0806 13.6489 27.7269 13.6489 27.4174C13.6489 27.1374 13.6345 26.2088 13.6345 25.2214C10.7451 25.7667 9.99762 24.4992 9.76762 23.8359C9.63824 23.4969 9.07762 22.4505 8.58887 22.1705C8.18637 21.9494 7.61137 21.4041 8.57449 21.3893C9.48012 21.3746 10.127 22.2442 10.3426 22.5979C11.3776 24.3813 13.0307 23.8801 13.692 23.5706C13.7926 22.8042 14.0945 22.2884 14.4251 21.9936C11.8664 21.6988 9.19262 20.6819 9.19262 16.1719C9.19262 14.8896 9.63824 13.8284 10.3714 13.0031C10.2564 12.7083 9.85387 11.4997 10.4864 9.87848C10.4864 9.87848 11.4495 9.56897 13.6489 11.087C14.5689 10.8217 15.5464 10.6891 16.5239 10.6891C17.5014 10.6891 18.4789 10.8217 19.3989 11.087C21.5982 9.55423 22.5614 9.87848 22.5614 9.87848C23.1939 11.4997 22.7914 12.7083 22.6764 13.0031C23.4095 13.8284 23.8551 14.8749 23.8551 16.1719C23.8551 20.6966 21.167 21.6988 18.6082 21.9936C19.0251 22.3621 19.3845 23.0695 19.3845 24.1749C19.3845 25.7519 19.3701 27.0195 19.3701 27.4174C19.3701 27.7269 19.5857 28.0954 20.1607 27.9775C22.4438 27.1875 24.4277 25.6832 25.8332 23.6764C27.2386 21.6696 27.9947 19.2614 27.9951 16.7909C27.9951 10.2764 22.8489 5 16.4951 5Z" fill="white"/>
</svg>
