<svg width="33" height="33" viewBox="0 0 33 33" fill="none" xmlns="http://www.w3.org/2000/svg">
<path d="M16.4951 7.07172C19.5656 7.07172 19.929 7.0838 21.1417 7.139C22.2629 7.19075 22.8724 7.37762 23.2772 7.5346C23.8143 7.74332 24.1972 7.99287 24.5997 8.3948C25.0022 8.7973 25.2518 9.18025 25.4599 9.7173C25.6175 10.1227 25.8049 10.7316 25.8555 11.8528C25.9107 13.0649 25.9228 13.4289 25.9228 16.5C25.9228 19.5705 25.9113 19.9339 25.8555 21.1466C25.8044 22.2678 25.6175 22.8773 25.4599 23.2821C25.2512 23.8192 25.0017 24.2021 24.5997 24.6046C24.1972 25.0071 23.8143 25.2567 23.2772 25.4648C22.8719 25.6224 22.2629 25.8098 21.1417 25.8604C19.9296 25.9156 19.5662 25.9277 16.4951 25.9277C13.4246 25.9277 13.0601 25.9162 11.848 25.8604C10.7267 25.8092 10.1178 25.6224 9.71242 25.4648C9.17537 25.2561 8.79242 25.0065 8.38992 24.6046C7.98742 24.2021 7.73787 23.8192 7.52972 23.2821C7.37274 22.8767 7.18529 22.2678 7.13412 21.1466C7.07892 19.9345 7.06684 19.5711 7.06684 16.5C7.06684 13.4295 7.07892 13.0655 7.13412 11.8528C7.18587 10.7316 7.37274 10.1227 7.52972 9.7173C7.73844 9.18025 7.98799 8.7973 8.38992 8.3948C8.79242 7.9923 9.17537 7.74275 9.71242 7.5346C10.1178 7.37762 10.7267 7.19018 11.848 7.139C13.0612 7.0838 13.424 7.07172 16.4951 7.07172ZM16.4951 5C13.3717 5 12.9801 5.01322 11.7537 5.069C10.5295 5.12535 9.69344 5.3197 8.96204 5.60375C8.1947 5.89242 7.49964 6.34514 6.92539 6.93028C6.3402 7.5047 5.88748 8.19996 5.59887 8.9675C5.31482 9.69775 5.12047 10.5344 5.06412 11.7585C5.00892 12.985 4.99512 13.3766 4.99512 16.5C4.99512 19.6228 5.00834 20.015 5.06412 21.2414C5.12047 22.465 5.31482 23.3011 5.59887 24.0325C5.88746 24.8 6.34018 25.4953 6.92539 26.0697C7.49988 26.6548 8.19513 27.1075 8.96262 27.3962C9.69344 27.6803 10.5301 27.8747 11.7537 27.931C12.9801 27.9868 13.3723 28 16.4951 28C19.6185 28 20.0101 27.9868 21.2371 27.931C22.4607 27.8747 23.2968 27.6803 24.0282 27.3962C24.7957 27.1076 25.491 26.6549 26.0654 26.0697C26.6503 25.4952 27.1028 24.7999 27.3914 24.0325C27.676 23.3011 27.8703 22.465 27.9261 21.2414C27.9825 20.015 27.9951 19.6228 27.9951 16.5C27.9951 13.3766 27.9825 12.985 27.9261 11.7585C27.8703 10.5344 27.676 9.69833 27.3914 8.96692C27.1028 8.19965 26.6503 7.50459 26.0654 6.93028C25.4908 6.3451 24.7953 5.89239 24.0276 5.60375C23.2962 5.3197 22.4602 5.12535 21.2366 5.069C20.0101 5.0138 19.6174 5 16.4951 5Z" fill="white"/>
<path d="M16.4951 10.5942C13.2325 10.5942 10.5898 13.2381 10.5898 16.4995C10.5898 19.7603 13.2337 22.4047 16.4951 22.4047C19.7553 22.4047 22.3998 19.7603 22.3998 16.4995C22.3998 13.2381 19.7571 10.5942 16.4951 10.5942ZM16.4951 20.3324C15.9917 20.3324 15.4932 20.2333 15.0282 20.0407C14.5631 19.848 14.1405 19.5657 13.7846 19.2097C13.4286 18.8538 13.1463 18.4312 12.9536 17.9661C12.761 17.5011 12.6619 17.0026 12.6619 16.4992C12.6619 15.9958 12.761 15.4974 12.9536 15.0323C13.1463 14.5672 13.4286 14.1447 13.7846 13.7887C14.1405 13.4328 14.5631 13.1504 15.0282 12.9578C15.4932 12.7651 15.9917 12.666 16.4951 12.666C17.5117 12.666 18.4867 13.0698 19.2056 13.7887C19.9245 14.5076 20.3283 15.4826 20.3283 16.4992C20.3283 17.5159 19.9245 18.4908 19.2056 19.2097C18.4867 19.9286 17.5117 20.3324 16.4951 20.3324ZM22.6338 11.7402C22.815 11.7402 22.9945 11.7045 23.1619 11.6352C23.3293 11.5658 23.4815 11.4642 23.6096 11.336C23.7377 11.2079 23.8394 11.0558 23.9087 10.8883C23.9781 10.7209 24.0138 10.5414 24.0138 10.3602C24.0138 10.179 23.9781 9.99955 23.9087 9.83212C23.8394 9.66469 23.7377 9.51256 23.6096 9.38442C23.4815 9.25627 23.3293 9.15462 23.1619 9.08527C22.9945 9.01592 22.815 8.98022 22.6338 8.98022C22.2678 8.98022 21.9168 9.12562 21.658 9.38442C21.3992 9.64322 21.2538 9.99423 21.2538 10.3602C21.2538 10.7262 21.3992 11.0772 21.658 11.336C21.9168 11.5948 22.2678 11.7402 22.6338 11.7402Z" fill="white"/>
</svg>
