<svg width="33" height="33" viewBox="0 0 33 33" fill="none" xmlns="http://www.w3.org/2000/svg">
<path d="M24.3824 11.1019C22.3709 11.1019 20.734 9.48655 20.734 7.50146C20.734 7.19505 20.4829 6.94727 20.1724 6.94727H17.1647C16.8551 6.94727 16.6036 7.19505 16.6036 7.50146V19.6692C16.6029 20.2305 16.3767 20.7686 15.9745 21.1655C15.5724 21.5624 15.0271 21.7856 14.4583 21.7863C13.8896 21.7855 13.3445 21.5622 12.9424 21.1653C12.5403 20.7685 12.3142 20.2304 12.3136 19.6692C12.3141 19.108 12.5402 18.5699 12.9423 18.173C13.3444 17.7761 13.8896 17.5529 14.4583 17.5522C14.7688 17.5522 15.0199 17.3044 15.0199 16.9985V14.0303C15.0199 13.7244 14.7688 13.4761 14.4583 13.4761C10.9982 13.4761 8.18311 16.2542 8.18311 19.6692C8.18311 23.0843 10.9982 25.8619 14.4583 25.8619C17.9184 25.8619 20.734 23.0838 20.734 19.6692V14.2833C21.8569 14.8735 23.1102 15.1809 24.3824 15.178C24.6929 15.178 24.944 14.9302 24.944 14.6238V11.6561C24.944 11.3501 24.6929 11.1019 24.3824 11.1019Z" fill="white"/>
</svg>
