<svg width="33" height="33" viewBox="0 0 33 33" fill="none" xmlns="http://www.w3.org/2000/svg">
<path d="M13.1125 24.3158C20.938 24.3158 25.2251 17.9659 25.2251 12.4675C25.2251 12.2882 25.2251 12.1088 25.2149 11.9295C26.0493 11.3393 26.7685 10.6071 27.3381 9.76801C26.5598 10.1052 25.7343 10.3267 24.8891 10.4254C25.7796 9.90547 26.4456 9.08569 26.7623 8.11975C25.9289 8.60935 25.0138 8.95152 24.059 9.13059C23.6611 8.71487 23.18 8.38362 22.6457 8.15744C22.1114 7.93126 21.5353 7.81497 20.9531 7.8158C18.6062 7.8158 16.6965 9.68334 16.6965 11.9794C16.6965 12.3029 16.7374 12.6221 16.8035 12.9304C13.2701 12.761 10.134 11.098 8.03122 8.57784C7.65484 9.21512 7.45801 9.93866 7.46081 10.6746C7.46077 11.3602 7.6336 12.0352 7.964 12.6399C8.29439 13.2445 8.77214 13.7601 9.35492 14.1409C8.68065 14.1186 8.02124 13.9411 7.43018 13.6229V13.6776C7.43018 15.6898 8.9017 17.378 10.8415 17.7614C10.4851 17.8613 10.1135 17.906 9.72158 17.906C9.44636 17.906 9.1818 17.8812 8.92212 17.8313C9.19299 18.659 9.72226 19.3829 10.4355 19.9012C11.1488 20.4194 12.0102 20.706 12.8986 20.7205C11.3915 21.8831 9.52788 22.5147 7.60863 22.5134C7.26727 22.5134 6.92636 22.4982 6.59521 22.4587C8.54291 23.6713 10.8037 24.3156 13.1125 24.3158Z" fill="white"/>
</svg>
