<svg width="33" height="33" viewBox="0 0 33 33" fill="none" xmlns="http://www.w3.org/2000/svg">
<path d="M28.7139 10.3924C28.5741 9.89291 28.3003 9.43749 27.9199 9.07178C27.5394 8.70606 27.0657 8.44289 26.5462 8.30862C24.6331 7.8158 16.9671 7.8158 16.9671 7.8158C16.9671 7.8158 9.30054 7.8158 7.38933 8.30862C6.86982 8.443 6.39615 8.70626 6.01578 9.07205C5.63542 9.43784 5.3617 9.89331 5.22205 10.3928C4.70947 12.2291 4.70947 16.0658 4.70947 16.0658C4.70947 16.0658 4.70947 19.9016 5.22205 21.7392C5.36181 22.2387 5.63562 22.6941 6.01607 23.0598C6.39652 23.4255 6.87024 23.6887 7.38978 23.823C9.29964 24.3158 16.9666 24.3158 16.9666 24.3158C16.9666 24.3158 24.6327 24.3158 26.5439 23.823C27.0635 23.6887 27.5373 23.4254 27.9177 23.0596C28.2982 22.6938 28.5719 22.2383 28.7116 21.7388C29.2238 19.9025 29.2238 16.0658 29.2238 16.0658C29.2238 16.0658 29.2242 12.23 28.7139 10.3924ZM14.5153 19.6011V12.5305L20.8834 16.0658L14.5144 19.6011H14.5153Z" fill="white"/>
</svg>
